<svg width="256" height="256" version="1.1" viewBox="0 0 67.733 67.733" xmlns="http://www.w3.org/2000/svg"><g><g><rect x="32.808" y="2.1167" width="2.1167" height="14.817" rx="1.0583" ry="1.0583" style="mix-blend-mode:normal"/><rect transform="rotate(22.5)" x="43.191" y="-13.422" width="2.1167" height="14.817" rx="1.0583" ry="1.0583" style="mix-blend-mode:normal"/><rect transform="rotate(45)" x="46.837" y="-31.751" width="2.1167" height="14.817" rx="1.0583" ry="1.0583" style="mix-blend-mode:normal"/><rect transform="rotate(67.5)" x="43.191" y="-50.08" width="2.1167" height="14.817" rx="1.0583" ry="1.0583" style="mix-blend-mode:normal"/><rect transform="rotate(90)" x="32.808" y="-65.619" width="2.1167" height="14.817" rx="1.0583" ry="1.0583" style="mix-blend-mode:normal"/><rect transform="rotate(112.5)" x="17.27" y="-76.001" width="2.1167" height="14.817" rx="1.0583" ry="1.0583" style="mix-blend-mode:normal"/><rect transform="rotate(135)" x="-1.0595" y="-79.647" width="2.1167" height="14.817" rx="1.0583" ry="1.0583" style="mix-blend-mode:normal"/><rect transform="rotate(157.5)" x="-19.389" y="-76.001" width="2.1167" height="14.817" rx="1.0583" ry="1.0583" style="mix-blend-mode:normal"/><rect transform="scale(-1)" x="-34.927" y="-65.619" width="2.1167" height="14.817" rx="1.0583" ry="1.0583" style="mix-blend-mode:normal"/><rect transform="rotate(202.5)" x="-45.31" y="-50.08" width="2.1167" height="14.817" rx="1.0583" ry="1.0583" style="mix-blend-mode:normal"/><rect transform="rotate(225)" x="-48.956" y="-31.751" width="2.1167" height="14.817" rx="1.0583" ry="1.0583" style="mix-blend-mode:normal"/><rect transform="rotate(247.5)" x="-45.31" y="-13.422" width="2.1167" height="14.817" rx="1.0583" ry="1.0583" style="mix-blend-mode:normal"/><rect transform="rotate(-90)" x="-34.927" y="2.1168" width="2.1167" height="14.817" rx="1.0583" ry="1.0583" style="mix-blend-mode:normal"/><rect transform="rotate(-67.5)" x="-19.388" y="12.499" width="2.1167" height="14.817" rx="1.0583" ry="1.0583" style="mix-blend-mode:normal"/><rect transform="rotate(-45)" x="-1.0593" y="16.145" width="2.1167" height="14.817" rx="1.0583" ry="1.0583" style="mix-blend-mode:normal"/><rect transform="rotate(-22.5)" x="17.27" y="12.499" width="2.1167" height="14.817" rx="1.0583" ry="1.0583" style="mix-blend-mode:normal"/></g><g transform="matrix(.42087 0 0 .42204 19.607 19.603)"><circle cx="33.867" cy="33.867" r="29.104" fill="none" stroke="#000" stroke-miterlimit="1" stroke-width="2.1167"/><circle cx="18.521" cy="44.185" r="2.6458"/><circle cx="33.867" cy="52.652" r="2.6458"/><circle cx="49.213" cy="44.185" r="2.6458"/><circle cx="16.14" cy="29.104" r="2.6458"/><circle cx="51.594" cy="29.104" r="2.6458"/></g></g><g display="none"><ellipse cx="33.867" cy="33.867" rx="18.521" ry="18.521" display="inline" fill="none" stroke="#f00" stroke-miterlimit="1" stroke-width="2.1167"/></g></svg>
