#define icon_dmxsun_64x64_width 64
#define icon_dmxsun_64x64_height 64
static unsigned char icon_dmxsun_64x64_bits[] = {
   0x00, 0x00, 0x00, 0x00, 0x00, 0x00, 0x00, 0x00, 0x00, 0x00, 0x00, 0x00,
   0x00, 0x00, 0x00, 0x00, 0x00, 0x00, 0x00, 0x80, 0x01, 0x00, 0x00, 0x00,
   0x00, 0x00, 0x00, 0x80, 0x01, 0x00, 0x00, 0x00, 0x00, 0x00, 0x30, 0x80,
   0x01, 0x0c, 0x00, 0x00, 0x00, 0x00, 0x30, 0x80, 0x01, 0x0c, 0x00, 0x00,
   0x00, 0x00, 0x30, 0x80, 0x01, 0x0c, 0x00, 0x00, 0x00, 0x00, 0x60, 0x80,
   0x01, 0x06, 0x00, 0x00, 0x00, 0x00, 0x60, 0x80, 0x01, 0x06, 0x00, 0x00,
   0x00, 0x00, 0xc0, 0x80, 0x01, 0x03, 0x00, 0x00, 0x00, 0x00, 0xc0, 0x80,
   0x01, 0x03, 0x00, 0x00, 0x00, 0x18, 0xc0, 0x81, 0x81, 0x03, 0x18, 0x00,
   0x00, 0x38, 0x80, 0x81, 0x81, 0x01, 0x1c, 0x00, 0x00, 0x70, 0x80, 0x81,
   0x81, 0x01, 0x0e, 0x00, 0x00, 0xe0, 0x00, 0x83, 0xc1, 0x00, 0x07, 0x00,
   0x00, 0xc0, 0x01, 0x83, 0xc1, 0x80, 0x03, 0x00, 0x00, 0x80, 0x03, 0x02,
   0x40, 0xc0, 0x01, 0x00, 0x00, 0x00, 0x07, 0x00, 0x00, 0xe0, 0x00, 0x00,
   0x00, 0x00, 0x0e, 0x00, 0x00, 0x70, 0x00, 0x00, 0x00, 0x00, 0x1c, 0x00,
   0x00, 0x38, 0x00, 0x00, 0x70, 0x00, 0x18, 0xe0, 0x07, 0x18, 0x00, 0x0e,
   0xf0, 0x01, 0x00, 0x0c, 0x30, 0x00, 0x80, 0x0f, 0x80, 0x0f, 0x00, 0x02,
   0x40, 0x00, 0xf0, 0x01, 0x00, 0x3e, 0x00, 0x01, 0x80, 0x00, 0x7c, 0x00,
   0x00, 0xf8, 0x80, 0x00, 0x00, 0x01, 0x1f, 0x00, 0x00, 0xc0, 0x41, 0x00,
   0x00, 0x82, 0x03, 0x00, 0x00, 0x00, 0x20, 0x00, 0x00, 0x04, 0x00, 0x00,
   0x00, 0x00, 0x20, 0x00, 0x00, 0x04, 0x00, 0x00, 0x00, 0x00, 0x00, 0x00,
   0x00, 0x00, 0x00, 0x00, 0x00, 0x00, 0x10, 0x03, 0xc0, 0x08, 0x00, 0x00,
   0x00, 0x00, 0x10, 0x03, 0xc0, 0x08, 0x00, 0x00, 0xfc, 0xff, 0x10, 0x00,
   0x00, 0x08, 0xff, 0x3f, 0xfc, 0xff, 0x10, 0x00, 0x00, 0x08, 0xff, 0x3f,
   0x00, 0x00, 0x10, 0x00, 0x00, 0x08, 0x00, 0x00, 0x00, 0x00, 0x10, 0x00,
   0x00, 0x08, 0x00, 0x00, 0x00, 0x00, 0x00, 0x06, 0x60, 0x00, 0x00, 0x00,
   0x00, 0x00, 0x20, 0x06, 0x60, 0x04, 0x00, 0x00, 0x00, 0x00, 0x20, 0x00,
   0x00, 0x04, 0x00, 0x00, 0x00, 0xc0, 0x41, 0x00, 0x00, 0x82, 0x03, 0x00,
   0x00, 0xf8, 0x80, 0x80, 0x01, 0x01, 0x1f, 0x00, 0x00, 0x3e, 0x80, 0x81,
   0x81, 0x00, 0x7c, 0x00, 0x80, 0x0f, 0x00, 0x02, 0x40, 0x00, 0xf0, 0x03,
   0xf0, 0x01, 0x00, 0x0c, 0x30, 0x00, 0x80, 0x0f, 0x70, 0x00, 0x18, 0xf0,
   0x0f, 0x18, 0x00, 0x0e, 0x00, 0x00, 0x1c, 0x00, 0x00, 0x38, 0x00, 0x00,
   0x00, 0x00, 0x0e, 0x00, 0x00, 0x70, 0x00, 0x00, 0x00, 0x00, 0x07, 0x00,
   0x00, 0xe0, 0x00, 0x00, 0x00, 0x80, 0x03, 0x02, 0x40, 0xc0, 0x01, 0x00,
   0x00, 0xc0, 0x01, 0x83, 0xc1, 0x80, 0x03, 0x00, 0x00, 0xe0, 0x00, 0x83,
   0xc1, 0x00, 0x07, 0x00, 0x00, 0x70, 0x80, 0x81, 0x81, 0x01, 0x0e, 0x00,
   0x00, 0x38, 0x80, 0x81, 0x81, 0x01, 0x1c, 0x00, 0x00, 0x18, 0xc0, 0x81,
   0x81, 0x03, 0x18, 0x00, 0x00, 0x00, 0xc0, 0x80, 0x01, 0x03, 0x00, 0x00,
   0x00, 0x00, 0xc0, 0x80, 0x01, 0x03, 0x00, 0x00, 0x00, 0x00, 0x60, 0x80,
   0x01, 0x06, 0x00, 0x00, 0x00, 0x00, 0x60, 0x80, 0x01, 0x06, 0x00, 0x00,
   0x00, 0x00, 0x30, 0x80, 0x01, 0x0c, 0x00, 0x00, 0x00, 0x00, 0x30, 0x80,
   0x01, 0x0c, 0x00, 0x00, 0x00, 0x00, 0x30, 0x80, 0x01, 0x0c, 0x00, 0x00,
   0x00, 0x00, 0x00, 0x80, 0x01, 0x00, 0x00, 0x00, 0x00, 0x00, 0x00, 0x80,
   0x01, 0x00, 0x00, 0x00, 0x00, 0x00, 0x00, 0x00, 0x00, 0x00, 0x00, 0x00,
   0x00, 0x00, 0x00, 0x00, 0x00, 0x00, 0x00, 0x00 };
